<svg xmlns="http://www.w3.org/2000/svg" xmlns:xlink="http://www.w3.org/1999/xlink" width="353" height="46" viewBox="0 0 353 46">
  <defs>
    <linearGradient id="linear-gradient" y1="0.5" x2="1" y2="0.5" gradientUnits="objectBoundingBox">
      <stop offset="0.2" stop-color="#4b37be"/>
      <stop offset="0.8" stop-color="#0064be"/>
    </linearGradient>
    <clipPath id="clip-NP_-_LOGO_-_MENU">
      <rect width="353" height="46"/>
    </clipPath>
  </defs>
  <g id="NP_-_LOGO_-_MENU" data-name="NP - LOGO - MENU" clip-path="url(#clip-NP_-_LOGO_-_MENU)">
    <g id="NP_LOGO_BRANCO_H_1_-_GRADIENTE" data-name="NP LOGO BRANCO H 1 - GRADIENTE">
      <path id="Caminho_1" data-name="Caminho 1" d="M89.915,33.3a11.344,11.344,0,0,1-8.043,3.335H45.942a6.818,6.818,0,0,0-5.68,3.041L36.71,45.01a6.829,6.829,0,0,1-5.654,3H17.036A3.412,3.412,0,0,1,13.625,44.6V38.91a2.273,2.273,0,0,0-2.275-2.275H5.661A3.409,3.409,0,0,1,2.25,33.221V25.26A11.372,11.372,0,0,1,13.625,13.885h35.93a6.825,6.825,0,0,0,5.68-3.041l3.526-5.293A6.816,6.816,0,0,1,64.438,2.51H78.461a3.41,3.41,0,0,1,3.411,3.411V11.61a2.273,2.273,0,0,0,2.275,2.275h5.689A3.409,3.409,0,0,1,93.247,17.3V25.26A11.341,11.341,0,0,1,89.915,33.3ZM81.872,18.432a3.412,3.412,0,0,0-3.411-3.411H56.1a6.82,6.82,0,0,0-5.657,3.009.245.245,0,0,1-.023.035l-2.765,4.154a6.825,6.825,0,0,1-5.68,3.041H17.036a3.41,3.41,0,0,0-3.411,3.411v3.411a3.41,3.41,0,0,0,3.411,3.411H39.39a6.82,6.82,0,0,0,5.657-3.009L47.835,28.3a6.818,6.818,0,0,1,5.68-3.041H78.458a3.412,3.412,0,0,0,3.411-3.411V18.432Z" transform="translate(-2.25 -2.51)" fill="url(#linear-gradient)"/>
      <g id="Grupo_2" data-name="Grupo 2" transform="translate(105.569 7.524)">
        <path id="Caminho_2" data-name="Caminho 2" d="M384.128,57.663h-6.079L367.4,41.682h-.126V57.663h-5.39V32.28h5.765l10.967,16.45h.126V32.28h5.39Z" transform="translate(-361.88 -31.065)" fill="#f3faff"/>
        <path id="Caminho_3" data-name="Caminho 3" d="M454.44,34.34a3.1,3.1,0,1,1,2.193-.907A2.987,2.987,0,0,1,454.44,34.34Zm-2.821,20.4v-18.8h5.639v18.8Z" transform="translate(-425.079 -28.14)" fill="#f3faff"/>
        <path id="Caminho_4" data-name="Caminho 4" d="M483.81,72.668v-18.8h5.328v2.662h.126a5.488,5.488,0,0,1,2.163-2.257,6.188,6.188,0,0,1,3.071-.751,6.379,6.379,0,0,1,3.15.784,6.178,6.178,0,0,1,2.272,2.225h.094a7.486,7.486,0,0,1,2.569-2.225,7.145,7.145,0,0,1,3.352-.784,7.377,7.377,0,0,1,3.9,1.019,7.043,7.043,0,0,1,2.615,2.8,8.769,8.769,0,0,1,.939,4.136V72.665h-5.639V62.605a4.493,4.493,0,0,0-.845-2.9,3.068,3.068,0,0,0-4.623,0,4.435,4.435,0,0,0-.863,2.9v10.06h-5.639V62.605a4.43,4.43,0,0,0-.863-2.9,2.9,2.9,0,0,0-2.366-1.051,2.719,2.719,0,0,0-2.3,1.051,4.693,4.693,0,0,0-.8,2.9v10.06H483.81Z" transform="translate(-448.018 -46.07)" fill="#f3faff"/>
        <path id="Caminho_5" data-name="Caminho 5" d="M606.807,55.778a5.485,5.485,0,0,1-5.169-2.944h-.126V55.4H596.06V29.08H601.7v9.934h.126a5.22,5.22,0,0,1,4.981-2.789,7,7,0,0,1,4.1,1.221,7.977,7.977,0,0,1,2.727,3.432A12.665,12.665,0,0,1,614.609,46a12.471,12.471,0,0,1-.972,5.093,8.07,8.07,0,0,1-2.727,3.446A6.946,6.946,0,0,1,606.807,55.778Zm-1.567-5.014a3.263,3.263,0,0,0,2.742-1.286A5.577,5.577,0,0,0,608.967,46a5.577,5.577,0,0,0-.986-3.479,3.6,3.6,0,0,0-5.328-.205,4.363,4.363,0,0,0-.957,2.991v1.38a4.344,4.344,0,0,0,.957,2.991,3.272,3.272,0,0,0,2.586,1.08Z" transform="translate(-527.317 -28.804)" fill="#f3faff"/>
        <path id="Caminho_6" data-name="Caminho 6" d="M674.524,73.838a6.37,6.37,0,0,1-5.971-3.7,9.118,9.118,0,0,1-.863-4.074V54.69h5.639V64.938a4.178,4.178,0,0,0,.831,2.774,2.921,2.921,0,0,0,2.366.986,3.247,3.247,0,0,0,2.569-1.066,4.193,4.193,0,0,0,.939-2.883V54.69h5.639v18.8h-5.451V70.671H680.1a5.527,5.527,0,0,1-2.21,2.351,6.678,6.678,0,0,1-3.37.816Z" transform="translate(-577.92 -46.896)" fill="#f3faff"/>
        <path id="Caminho_7" data-name="Caminho 7" d="M746.82,72.973a9.393,9.393,0,0,1-6-1.817,6.4,6.4,0,0,1-2.46-4.952h5.39a2.871,2.871,0,0,0,1.113,1.817,3.675,3.675,0,0,0,2.21.625,2.861,2.861,0,0,0,1.614-.39,1.319,1.319,0,0,0,.578-1.174q0-1.1-1.474-1.409l-3.7-.816q-5.3-1.158-5.3-5.3a5.408,5.408,0,0,1,2.116-4.465,8.632,8.632,0,0,1,5.53-1.676,8.73,8.73,0,0,1,5.624,1.738,6.115,6.115,0,0,1,2.272,4.717h-5.39a2.861,2.861,0,0,0-.939-1.723,2.912,2.912,0,0,0-1.911-.6,2.677,2.677,0,0,0-1.488.361,1.206,1.206,0,0,0-.549,1.08,1.073,1.073,0,0,0,.329.816,2.081,2.081,0,0,0,.925.47l3.854.845a8.209,8.209,0,0,1,4.028,1.9,4.788,4.788,0,0,1,1.333,3.587,5.712,5.712,0,0,1-2.07,4.653,8.593,8.593,0,0,1-5.639,1.708Z" transform="translate(-627.845 -45.999)" fill="#f3faff"/>
        <g id="Grupo_1" data-name="Grupo 1" transform="translate(132.235 0.904)">
          <path id="Caminho_8" data-name="Caminho 8" d="M812.35,57.663V32.28h10.122a8.45,8.45,0,0,1,6.047,2.1,7.511,7.511,0,0,1,2.225,5.736,7.446,7.446,0,0,1-2.24,5.7,8.393,8.393,0,0,1-6.032,2.131h-6.517v9.714h-3.6Zm3.6-12.91h6.329a4.862,4.862,0,0,0,3.526-1.253,4.482,4.482,0,0,0,1.3-3.385,4.562,4.562,0,0,0-1.3-3.417,4.862,4.862,0,0,0-3.526-1.253h-6.329V44.75Z" transform="translate(-812.35 -31.969)" fill="#f3faff"/>
          <path id="Caminho_9" data-name="Caminho 9" d="M884.3,73.127v-18.8h3.385v3.7h.126a5.858,5.858,0,0,1,2.037-2.8,5.612,5.612,0,0,1,3.446-1.051H894.7V57.3h-1.6a4.771,4.771,0,0,0-3.916,1.644,6.742,6.742,0,0,0-1.347,4.4v9.778H884.3Z" transform="translate(-863.179 -47.433)" fill="#f3faff"/>
          <path id="Caminho_10" data-name="Caminho 10" d="M931.013,35.606a2.195,2.195,0,1,1,1.55-.643A2.1,2.1,0,0,1,931.013,35.606Zm-1.785,21.309v-18.8h3.54v18.8Z" transform="translate(-894.63 -31.22)" fill="#f3faff"/>
          <path id="Caminho_11" data-name="Caminho 11" d="M958.741,73.5l-7.3-18.8h3.666l5.577,14.98h.126l5.516-14.98h3.54l-7.271,18.8Z" transform="translate(-910.61 -47.807)" fill="#f3faff"/>
          <path id="Caminho_12" data-name="Caminho 12" d="M1023.347,72.941a6.473,6.473,0,0,1-4.529-1.582,5.308,5.308,0,0,1-1.738-4.121,5.142,5.142,0,0,1,1.755-4.151,7.482,7.482,0,0,1,4.982-1.488h5.39v-.907a4.285,4.285,0,0,0-1.1-3.15,4.068,4.068,0,0,0-3.038-1.113,4.579,4.579,0,0,0-2.695.751,3.428,3.428,0,0,0-1.38,2.131h-3.6A6.62,6.62,0,0,1,1019.945,55a8.333,8.333,0,0,1,5.187-1.582,7.626,7.626,0,0,1,5.483,1.879,7.012,7.012,0,0,1,1.976,5.328V72.6h-3.352V69.4h-.126a5.564,5.564,0,0,1-2.272,2.6A6.618,6.618,0,0,1,1023.347,72.941Zm.751-2.912a5.062,5.062,0,0,0,4.436-2.492,5,5,0,0,0,.672-2.586v-.69h-5.169a4.2,4.2,0,0,0-2.709.751,2.524,2.524,0,0,0-.925,2.07,2.625,2.625,0,0,0,1,2.146,4.2,4.2,0,0,0,2.695.8Z" transform="translate(-956.982 -46.903)" fill="#f3faff"/>
          <path id="Caminho_13" data-name="Caminho 13" d="M1089.426,72.973a8.552,8.552,0,0,1-4.527-1.206,8.447,8.447,0,0,1-3.135-3.4,11.025,11.025,0,0,1-1.145-5.169,11.161,11.161,0,0,1,1.145-5.2,8.329,8.329,0,0,1,3.135-3.385,8.658,8.658,0,0,1,4.527-1.192,9,9,0,0,1,3.652.737,7.165,7.165,0,0,1,2.821,2.21,8.668,8.668,0,0,1,1.582,3.7h-3.666a4.3,4.3,0,0,0-1.615-2.616,5.009,5.009,0,0,0-6.6.954,7.419,7.419,0,0,0-1.441,4.794,7.392,7.392,0,0,0,1.441,4.779,4.65,4.65,0,0,0,3.822,1.8,4.73,4.73,0,0,0,2.9-.892,4.648,4.648,0,0,0,1.644-2.868h3.6A8.855,8.855,0,0,1,1096,69.873a7.449,7.449,0,0,1-2.85,2.319,8.762,8.762,0,0,1-3.728.784Z" transform="translate(-1001.87 -46.903)" fill="#f3faff"/>
          <path id="Caminho_14" data-name="Caminho 14" d="M1141.933,81.022V78.2h4.23l1.661-4.606-7.835-18.9h3.666l5.924,14.507h.126l5.169-14.507h3.54l-7.051,18.8-1.661,4.356a8.367,8.367,0,0,1-1.239,2.334,2.692,2.692,0,0,1-2.21.831h-4.324Z" transform="translate(-1043.812 -47.807)" fill="#f3faff"/>
        </g>
      </g>
    </g>
  </g>
</svg>
