<svg xmlns="http://www.w3.org/2000/svg" xmlns:xlink="http://www.w3.org/1999/xlink" width="243" height="90" viewBox="0 0 243 90">
  <defs>
    <linearGradient id="linear-gradient" y1="0.5" x2="1" y2="0.5" gradientUnits="objectBoundingBox">
      <stop offset="0.2" stop-color="#4b37be"/>
      <stop offset="0.8" stop-color="#0064be"/>
    </linearGradient>
    <clipPath id="clip-NP_-_LOGO_-_FOOTER">
      <rect width="243" height="90"/>
    </clipPath>
  </defs>
  <g id="NP_-_LOGO_-_FOOTER" data-name="NP - LOGO - FOOTER" clip-path="url(#clip-NP_-_LOGO_-_FOOTER)">
    <g id="Prancheta_53" data-name="Prancheta 53" transform="translate(0 0.01)">
      <path id="Caminho_47" data-name="Caminho 47" d="M209.458,30.188a11.259,11.259,0,0,1-3.019,2.154,11.109,11.109,0,0,1-4.865,1.113H166.343a6.7,6.7,0,0,0-5.572,2.983l-3.479,5.228a6.694,6.694,0,0,1-5.542,2.941H138a3.345,3.345,0,0,1-3.346-3.346V35.681a2.231,2.231,0,0,0-2.233-2.233h-5.578A3.334,3.334,0,0,1,123.5,30.1V22.3a11.141,11.141,0,0,1,11.151-11.151h35.226a6.7,6.7,0,0,0,5.572-2.983L178.9,2.973A6.685,6.685,0,0,1,184.47-.01h13.747a3.345,3.345,0,0,1,3.346,3.346V8.914a2.231,2.231,0,0,0,2.233,2.233h5.578a3.334,3.334,0,0,1,3.346,3.346V22.3a11.1,11.1,0,0,1-3.267,7.884Zm-7.89-14.575a3.345,3.345,0,0,0-3.346-3.346H176.3a6.7,6.7,0,0,0-5.548,2.947c-.006.012-.018.024-.024.036l-2.711,4.072a6.687,6.687,0,0,1-5.572,2.983H137.991a3.341,3.341,0,0,0-3.346,3.346V29a3.345,3.345,0,0,0,3.346,3.346h21.915a6.7,6.7,0,0,0,5.548-2.947l2.735-4.108a6.687,6.687,0,0,1,5.572-2.983h24.456a3.349,3.349,0,0,0,3.346-3.346V15.612Z" transform="translate(-48.777)" fill="url(#linear-gradient)"/>
      <g id="Grupo_46" data-name="Grupo 46" transform="translate(0 56.531)">
        <path id="Caminho_48" data-name="Caminho 48" d="M21.812,120.3h-5.96L5.409,104.625H5.288V120.3H0V95.41H5.651L16.4,111.54h.121V95.41h5.282V120.3Z" transform="translate(0 -94.218)" fill="#f3faff"/>
        <path id="Caminho_49" data-name="Caminho 49" d="M45.6,99.515a3.037,3.037,0,1,1,2.148-.889A2.923,2.923,0,0,1,45.6,99.515Zm-2.765,20V101.082h5.53v18.436Z" transform="translate(-16.809 -93.44)" fill="#f3faff"/>
        <path id="Caminho_50" data-name="Caminho 50" d="M57.988,124.284V105.849H63.21v2.614h.121a5.429,5.429,0,0,1,2.118-2.214,6.074,6.074,0,0,1,3.013-.738,6.2,6.2,0,0,1,3.086.768,6.063,6.063,0,0,1,2.227,2.184h.091a7.341,7.341,0,0,1,2.517-2.184,7,7,0,0,1,3.285-.768,7.221,7.221,0,0,1,3.824,1,6.933,6.933,0,0,1,2.565,2.747,8.542,8.542,0,0,1,.92,4.054v10.969h-5.53v-9.862a4.433,4.433,0,0,0-.829-2.844,3.01,3.01,0,0,0-4.532,0,4.355,4.355,0,0,0-.847,2.844v9.862h-5.53v-9.862a4.366,4.366,0,0,0-.847-2.844,2.844,2.844,0,0,0-2.317-1.029,2.671,2.671,0,0,0-2.257,1.029,4.6,4.6,0,0,0-.787,2.844v9.862H57.97Z" transform="translate(-22.896 -98.207)" fill="#f3faff"/>
        <path id="Caminho_51" data-name="Caminho 51" d="M121.93,120.06a5.379,5.379,0,0,1-5.07-2.886h-.121v2.517H111.39V93.88h5.53v9.741h.121a5.123,5.123,0,0,1,4.883-2.735,6.853,6.853,0,0,1,4.024,1.2,7.787,7.787,0,0,1,2.674,3.364,13.669,13.669,0,0,1,0,10.013,7.913,7.913,0,0,1-2.674,3.382,6.794,6.794,0,0,1-4.024,1.216Zm-1.537-4.913a3.183,3.183,0,0,0,2.686-1.258,6.5,6.5,0,0,0,0-6.825,3.528,3.528,0,0,0-5.222-.2,4.283,4.283,0,0,0-.938,2.934v1.349a4.294,4.294,0,0,0,.938,2.934,3.206,3.206,0,0,0,2.535,1.059Z" transform="translate(-43.994 -93.614)" fill="#f3faff"/>
        <path id="Caminho_52" data-name="Caminho 52" d="M152.178,124.848a6.226,6.226,0,0,1-5.851-3.624,8.977,8.977,0,0,1-.847-3.993V106.08h5.53v10.05a4.08,4.08,0,0,0,.817,2.717,2.861,2.861,0,0,0,2.317.968,3.162,3.162,0,0,0,2.517-1.047,4.106,4.106,0,0,0,.92-2.826V106.08h5.53v18.436h-5.349v-2.765h-.121a5.432,5.432,0,0,1-2.166,2.305,6.547,6.547,0,0,1-3.3.8Z" transform="translate(-57.458 -98.432)" fill="#f3faff"/>
        <path id="Caminho_53" data-name="Caminho 53" d="M187.385,124.638a9.206,9.206,0,0,1-5.881-1.779,6.278,6.278,0,0,1-2.414-4.852h5.282a2.8,2.8,0,0,0,1.089,1.779,3.574,3.574,0,0,0,2.166.617,2.83,2.83,0,0,0,1.585-.381,1.291,1.291,0,0,0,.569-1.15c0-.714-.484-1.18-1.446-1.386l-3.624-.8q-5.191-1.134-5.191-5.191a5.311,5.311,0,0,1,2.075-4.381,8.478,8.478,0,0,1,5.421-1.646,8.573,8.573,0,0,1,5.518,1.706,5.974,5.974,0,0,1,2.227,4.623h-5.282a2.785,2.785,0,0,0-.92-1.688,2.861,2.861,0,0,0-1.876-.581,2.613,2.613,0,0,0-1.458.351,1.185,1.185,0,0,0-.538,1.059,1.066,1.066,0,0,0,.321.8,2.036,2.036,0,0,0,.908.46l3.782.829a8.06,8.06,0,0,1,3.951,1.857,4.688,4.688,0,0,1,1.307,3.515,5.606,5.606,0,0,1-2.027,4.562,8.4,8.4,0,0,1-5.53,1.676Z" transform="translate(-70.733 -98.191)" fill="#f3faff"/>
        <g id="Grupo_45" data-name="Grupo 45" transform="translate(129.648 0.889)">
          <path id="Caminho_54" data-name="Caminho 54" d="M214.28,120.3V95.41H224.2a8.28,8.28,0,0,1,5.929,2.057,7.373,7.373,0,0,1,2.184,5.621,7.3,7.3,0,0,1-2.2,5.591,8.235,8.235,0,0,1-5.917,2.087h-6.389v9.523H214.28Zm3.533-12.657h6.208a4.776,4.776,0,0,0,3.455-1.228,4.4,4.4,0,0,0,1.277-3.316,4.468,4.468,0,0,0-1.277-3.352,4.786,4.786,0,0,0-3.455-1.228h-6.208Z" transform="translate(-214.28 -95.107)" fill="#f3faff"/>
          <path id="Caminho_55" data-name="Caminho 55" d="M248.51,124.407V105.971h3.316V109.6h.121a5.738,5.738,0,0,1,2-2.747,5.507,5.507,0,0,1,3.382-1.029h1.385v3.074h-1.567a4.677,4.677,0,0,0-3.842,1.615,6.6,6.6,0,0,0-1.319,4.32v9.584H248.51Z" transform="translate(-227.799 -99.219)" fill="#f3faff"/>
          <path id="Caminho_56" data-name="Caminho 56" d="M271.838,99.206a2.148,2.148,0,1,1,1.519-.629A2.074,2.074,0,0,1,271.838,99.206ZM270.089,120.1V101.662h3.473V120.1Z" transform="translate(-236.165 -94.91)" fill="#f3faff"/>
          <path id="Caminho_57" data-name="Caminho 57" d="M287.608,124.506,280.45,106.07h3.594l5.47,14.684h.121l5.409-14.684h3.473l-7.127,18.436Z" transform="translate(-240.414 -99.318)" fill="#f3faff"/>
          <path id="Caminho_58" data-name="Caminho 58" d="M317.817,124.611a6.346,6.346,0,0,1-4.441-1.549,5.2,5.2,0,0,1-1.706-4.042,5.06,5.06,0,0,1,1.718-4.072,7.339,7.339,0,0,1,4.883-1.458h5.282V112.6a4.193,4.193,0,0,0-1.077-3.086,4,4,0,0,0-2.983-1.089,4.489,4.489,0,0,0-2.644.738,3.336,3.336,0,0,0-1.349,2.087h-3.533a6.479,6.479,0,0,1,2.5-4.223,8.154,8.154,0,0,1,5.082-1.549,7.5,7.5,0,0,1,5.379,1.845,6.875,6.875,0,0,1,1.936,5.222v11.738h-3.285v-3.134h-.121a5.463,5.463,0,0,1-2.227,2.547,6.454,6.454,0,0,1-3.425.92Zm.738-2.856a4.953,4.953,0,0,0,4.344-2.438,4.89,4.89,0,0,0,.659-2.535V116.1h-5.07a4.136,4.136,0,0,0-2.656.738,2.468,2.468,0,0,0-.908,2.027,2.583,2.583,0,0,0,.98,2.106,4.133,4.133,0,0,0,2.644.787Z" transform="translate(-252.745 -99.085)" fill="#f3faff"/>
          <path id="Caminho_59" data-name="Caminho 59" d="M350.534,124.638a8.418,8.418,0,0,1-4.441-1.18,8.28,8.28,0,0,1-3.074-3.334,10.788,10.788,0,0,1-1.119-5.07,10.989,10.989,0,0,1,1.119-5.1,8.153,8.153,0,0,1,3.074-3.316,8.466,8.466,0,0,1,4.441-1.168,8.892,8.892,0,0,1,3.582.72,7.093,7.093,0,0,1,2.765,2.166,8.434,8.434,0,0,1,1.549,3.624h-3.594a4.242,4.242,0,0,0-1.579-2.565,4.9,4.9,0,0,0-6.462.932,8.483,8.483,0,0,0,0,9.384,4.553,4.553,0,0,0,3.745,1.767,4.635,4.635,0,0,0,2.844-.877A4.582,4.582,0,0,0,355,117.807h3.533A8.673,8.673,0,0,1,357,121.588a7.309,7.309,0,0,1-2.8,2.275,8.561,8.561,0,0,1-3.654.768Z" transform="translate(-264.685 -99.081)" fill="#f3faff"/>
          <path id="Caminho_60" data-name="Caminho 60" d="M372.046,131.885V129.12H376.2l1.628-4.514L370.14,106.08h3.594l5.808,14.225h.121l5.07-14.225h3.473l-6.916,18.436-1.628,4.272a8.116,8.116,0,0,1-1.216,2.287,2.629,2.629,0,0,1-2.166.817H372.04Z" transform="translate(-275.838 -99.322)" fill="#f3faff"/>
        </g>
      </g>
    </g>
  </g>
</svg>
