<svg xmlns="http://www.w3.org/2000/svg" xmlns:xlink="http://www.w3.org/1999/xlink" width="38" height="38" viewBox="0 0 38 38">
  <defs>
    <clipPath id="clip-NP_-_ÍCONE_-_COOKIE">
      <rect width="38" height="38"/>
    </clipPath>
  </defs>
  <g id="NP_-_ÍCONE_-_COOKIE" data-name="NP - ÍCONE - COOKIE" clip-path="url(#clip-NP_-_ÍCONE_-_COOKIE)">
    <path id="cookie-alt_10473039" d="M37.1,18.424a6.987,6.987,0,0,0,.277-4.666,7.1,7.1,0,0,0-3.754-4.439.951.951,0,0,1-.559-.693A7.058,7.058,0,0,0,24.851,2.46a1.161,1.161,0,0,1-.945-.383,7.056,7.056,0,0,0-10,0,1.157,1.157,0,0,1-.947.383A7.06,7.06,0,0,0,4.747,8.626a.955.955,0,0,1-.557.693A7.1,7.1,0,0,0,.434,13.758a7,7,0,0,0,.277,4.666,1.469,1.469,0,0,1,0,1.157,6.988,6.988,0,0,0-.277,4.666A7.1,7.1,0,0,0,4.19,28.689a.966.966,0,0,1,.557.693,7.057,7.057,0,0,0,8.209,6.165,1.163,1.163,0,0,1,.947.382,7.056,7.056,0,0,0,10,0,1.119,1.119,0,0,1,.945-.383,7.06,7.06,0,0,0,8.214-6.167.966.966,0,0,1,.557-.692,7.107,7.107,0,0,0,3.755-4.441A7,7,0,0,0,37.1,19.58a1.469,1.469,0,0,1,0-1.157ZM10.2,22.166a2.375,2.375,0,1,1,2.375-2.375A2.376,2.376,0,0,1,10.2,22.166ZM16.531,7.916a2.375,2.375,0,1,1-2.375,2.375A2.376,2.376,0,0,1,16.531,7.916Zm0,22.166a2.375,2.375,0,1,1,2.375-2.375A2.376,2.376,0,0,1,16.531,30.082Zm3.167-9.5a2.375,2.375,0,1,1,2.375-2.375A2.376,2.376,0,0,1,19.7,20.582Zm7.916,3.167a2.375,2.375,0,1,1,2.375-2.375A2.376,2.376,0,0,1,27.614,23.749Z" transform="translate(-0.159)" fill="#f3faff"/>
  </g>
</svg>
